<?xml version="1.0" standalone="no"?><!DOCTYPE svg PUBLIC "-//W3C//DTD SVG 1.1//EN" "http://www.w3.org/Graphics/SVG/1.1/DTD/svg11.dtd"><svg t="1539157720769" class="icon" style="" viewBox="0 0 1024 1024" version="1.1" xmlns="http://www.w3.org/2000/svg" p-id="2189" xmlns:xlink="http://www.w3.org/1999/xlink" width="200" height="200"><defs><style type="text/css"></style></defs><path d="M953.727657 143.617668H70.272343c-34.957093 0-63.293408 28.335292-63.293409 63.279082v610.207523c0 34.929464 28.335292 63.278059 63.293409 63.278059h883.455314c34.95607 0 63.292385-28.348595 63.292385-63.278059V206.89675c0-34.942767-28.336315-63.279082-63.292385-63.279082zM70.272343 206.89675h883.455314v104.997146H70.272343V206.89675z m883.455314 610.207523H70.272343V375.172978h883.455314v441.931295z" p-id="2190"></path><path d="M165.364928 504.123628h581.648127c11.652364 0 21.092345-9.453284 21.092345-21.092345 0-11.665667-9.441004-21.092345-21.092345-21.092345H165.364928c-11.652364 0-21.106671 9.426678-21.106672 21.092345 0 11.639061 9.454307 21.092345 21.106672 21.092345zM861.748987 522.665899c21.881313 0 39.634616-17.738977 39.634616-39.634616 0-21.894616-17.754327-39.621314-39.634616-39.621314-21.882336 0-39.606987 17.725675-39.606988 39.621314-0.001023 21.895639 17.724651 39.634616 39.606988 39.634616zM162.252037 749.007475c11.652364 0 21.078019-9.453284 21.078019-21.091322V644.599752h563.684022c11.652364 0 21.092345-9.439981 21.092346-21.091322 0-11.653388-9.441004-21.106671-21.092346-21.106671H162.252037c-11.653388 0-21.107695 9.453284-21.107695 21.106671v104.4067c0 11.638038 9.454307 21.092345 21.107695 21.092345z" p-id="2191"></path><path d="M861.748987 602.401759c-11.652364 0-21.092345 9.453284-21.092346 21.106671v83.299005H270.293512c-11.653388 0-21.107695 9.441004-21.107694 21.107695 0 11.638038 9.454307 21.091322 21.107694 21.091322h591.454451c11.652364 0 21.091322-9.453284 21.091322-21.091322V623.50843c0.001023-11.653388-9.438958-21.106671-21.090298-21.106671z" p-id="2192"></path></svg>