<?xml version="1.0" standalone="no"?><!DOCTYPE svg PUBLIC "-//W3C//DTD SVG 1.1//EN" "http://www.w3.org/Graphics/SVG/1.1/DTD/svg11.dtd"><svg t="1539158476211" class="icon" style="" viewBox="0 0 1024 1024" version="1.1" xmlns="http://www.w3.org/2000/svg" p-id="4911" xmlns:xlink="http://www.w3.org/1999/xlink" width="200" height="200"><defs><style type="text/css"></style></defs><path d="M649.118225 40.89351H143.783911C64.85209 40.89351 0 103.953634 0 181.733477V883.202699C0 961.025207 64.766759 1024 144.637228 1024h720.284861c79.955801 0 144.637228-63.102791 144.637228-140.925299V394.422734h-72.105285v488.651967c0 39.081918-32.426045 70.697312-72.531943 70.697312H144.637228c-40.105898 0-72.531943-31.572728-72.531943-70.61198V181.733477c0-38.911254 32.426045-70.61198 71.721292-70.61198h505.291648V40.89351z m-196.604232 465.953735a34.474006 34.474006 0 0 0 0 49.663049 36.735296 36.735296 0 0 0 50.98569 0L1013.399243 59.965144a34.474006 34.474006 0 0 0 0-49.663048 36.735296 36.735296 0 0 0-50.985689 0L452.513993 506.847245z" p-id="4912"></path></svg>