<?xml version="1.0" standalone="no"?><!DOCTYPE svg PUBLIC "-//W3C//DTD SVG 1.1//EN" "http://www.w3.org/Graphics/SVG/1.1/DTD/svg11.dtd"><svg t="1539158220979" class="icon" style="" viewBox="0 0 1025 1024" version="1.1" xmlns="http://www.w3.org/2000/svg" p-id="2959" xmlns:xlink="http://www.w3.org/1999/xlink" width="200.1953125" height="200"><defs><style type="text/css"></style></defs><path d="M383.99232 0l0 96.00832c73.48077 0 144.708786 14.376672 211.718006 42.699946 64.776944 27.401692 122.959461 66.640587 172.950141 116.631267s89.229575 108.173197 116.631267 172.950141c28.343753 67.00922 42.720426 138.237235 42.720426 211.718006l96.00832 0c0-353.457251-286.529949-639.9872-639.9872-639.9872z" p-id="2960"></path><path d="M383.99232 191.99616l0 96.00832c94.0218 0 182.411712 36.617508 248.888462 103.094258s103.094258 154.866663 103.094258 248.888462l96.00832 0c0-247.413932-200.577108-447.99104-447.99104-447.99104z" p-id="2961"></path><path d="M480.00064 383.99232l-63.99872 63.99872-224.00576 63.99872-191.99616 416.00192 25.374213 25.374213 232.791504-232.791504c-1.413092-5.283734-2.170837-10.833703-2.170837-16.567989 0-35.347773 28.650947-63.99872 63.99872-63.99872s63.99872 28.650947 63.99872 63.99872-28.650947 63.99872-63.99872 63.99872c-5.734285 0-11.284254-0.757745-16.567989-2.170837l-232.791504 232.791504 25.374213 25.374213 416.00192-191.99616 63.99872-224.00576 63.99872-63.99872-160.00704-160.00704z" p-id="2962"></path></svg>