<?xml version="1.0" standalone="no"?><!DOCTYPE svg PUBLIC "-//W3C//DTD SVG 1.1//EN" "http://www.w3.org/Graphics/SVG/1.1/DTD/svg11.dtd"><svg t="1539158096250" class="icon" style="" viewBox="0 0 1024 1024" version="1.1" xmlns="http://www.w3.org/2000/svg" p-id="2837" xmlns:xlink="http://www.w3.org/1999/xlink" width="200" height="200"><defs><style type="text/css"></style></defs><path d="M512 0C229.218 0 0 229.218 0 512s229.218 512 512 512 512-229.218 512-512S794.782 0 512 0zM512 944c-238.594 0-432-193.406-432-432S273.406 80 512 80s432 193.406 432 432S750.594 944 512 944z" p-id="2838"></path><path d="M731.906 448.688l-19.468 0 0 0c0 0-3.468 0-4.032 0-31.938 0-37.468-28.376-37.468-28.376l0.75 0.532c-3.75-91.594-73.344-164.312-168.438-164.906l0 0.124-77.124 0 1.124 0c-94.782 0.594-171.25 76.124-171.25 171 0 0.376 0-0.344 0-0.344l0 0 0 170.688 0 0c0 94.812 76.062 170.032 171.188 170.594l0 0.062 171.156 0 0-0.124C683.938 766.188 768 692.218 768 597.406l0 0 0-115.032C768 464.188 750.188 448.688 731.906 448.688zM417.624 383.25c0.25 0 0.062 0.032 0.062 0.032l0 0 95.062 0.032 0-0.032c19 0.406 31.124 17.718 31.124 34.468s-12.124 30.938-31.124 30.938l0 0-95.062 0c0 0-0.938 0-1.188 0-17.062 0-34.376-14.438-34.376-31.438S400.624 383.25 417.624 383.25zM593.312 641.312 593.312 641.312l-175.624 0 0-1c0 0-0.938 0-1.188 0-17.062 0-34.094-16.376-34.094-33.406 0-17 16.968-30.5 34.032-30.5 0.25 0 0.938 0 0.938 0l-0.062 0 178 0-0.5 0c19.062 0 29.124 15.188 29.124 31.968C623.938 625.124 612.344 641.312 593.312 641.312z" p-id="2839"></path></svg>