<?xml version="1.0" standalone="no"?><!DOCTYPE svg PUBLIC "-//W3C//DTD SVG 1.1//EN" "http://www.w3.org/Graphics/SVG/1.1/DTD/svg11.dtd"><svg t="1539158350746" class="icon" style="" viewBox="0 0 1024 1024" version="1.1" xmlns="http://www.w3.org/2000/svg" p-id="3644" xmlns:xlink="http://www.w3.org/1999/xlink" width="200" height="200"><defs><style type="text/css"></style></defs><path d="M512 0C228.430769 0 0 228.430769 0 512s228.430769 512 512 512 512-228.430769 512-512S795.569231 0 512 0z m0 984.615385C252.061538 984.615385 39.384615 771.938462 39.384615 512S252.061538 39.384615 512 39.384615s472.615385 212.676923 472.615385 472.615385-212.676923 472.615385-472.615385 472.615385z" p-id="3645"></path><path d="M787.692308 275.692308H275.692308c-23.630769 0-39.384615 15.753846-39.384616 39.384615s19.692308 39.384615 39.384616 39.384615h512c23.630769 0 39.384615-15.753846 39.384615-39.384615s-19.692308-39.384615-39.384615-39.384615zM787.692308 472.615385H275.692308c-23.630769 0-39.384615 15.753846-39.384616 39.384615s19.692308 39.384615 39.384616 39.384615h512c23.630769 0 39.384615-15.753846 39.384615-39.384615s-19.692308-39.384615-39.384615-39.384615zM787.692308 669.538462H275.692308c-23.630769 0-39.384615 15.753846-39.384616 39.384615s19.692308 39.384615 39.384616 39.384615h512c23.630769 0 39.384615-15.753846 39.384615-39.384615s-19.692308-39.384615-39.384615-39.384615z" p-id="3646"></path></svg>