<?xml version="1.0" standalone="no"?><!DOCTYPE svg PUBLIC "-//W3C//DTD SVG 1.1//EN" "http://www.w3.org/Graphics/SVG/1.1/DTD/svg11.dtd"><svg t="1539168826391" class="icon" style="" viewBox="0 0 1024 1024" version="1.1" xmlns="http://www.w3.org/2000/svg" p-id="4389" xmlns:xlink="http://www.w3.org/1999/xlink" width="200" height="200"><defs><style type="text/css"></style></defs><path d="M822.6 444.8c-11.2 0.4-21.9 9.2-22.3 21.2l-8 333.5h-33.1l6.5-309.1c0.1-5.8-2.1-11.5-6.2-15.7-4.1-4.2-9.7-6.5-15.5-6.5H280c-5.8 0-11.4 2.4-15.5 6.5-4.1 4.2-6.3 9.8-6.2 15.7l6.5 309.1h-33.1l-8-333.5c-0.3-11.8-10-21.2-21.8-21.2h-0.5c-12 0.3-21.5 10.3-21.2 22.3l8.6 354.8c0.3 11.8 9.9 21.2 21.8 21.2h76.5c5.8 0 11.4-2.4 15.5-6.5 4.1-4.2 6.3-9.8 6.2-15.7l-6.5-309.1h419.6l-6.5 309.1c-0.1 5.8 2.1 11.5 6.2 15.7 4.1 4.2 9.7 6.5 15.5 6.5h76.5c11.8 0 21.5-9.4 21.8-21.2l8.5-354.8c0.2-12-9.3-22-21.3-22.3z" fill="" p-id="4390"></path><path d="M651 802.5H372.9c-10.4 0-18.9 8.4-18.9 18.8s8.4 18.8 18.9 18.8H651c10.4 0 18.9-8.4 18.9-18.8s-8.5-18.8-18.9-18.8z" fill="" p-id="4391"></path><path d="M668.4 701H355.5c-12 0-21.8 9.7-21.8 21.8s9.7 21.8 21.8 21.8h312.9c12 0 21.8-9.7 21.8-21.8s-9.8-21.8-21.8-21.8z" fill="" p-id="4392"></path><path d="M372.9 643H651c10.4 0 18.9-8.4 18.9-18.8s-8.4-18.8-18.9-18.8H372.9c-10.4 0-18.9 8.4-18.9 18.8s8.5 18.8 18.9 18.8z" fill="" p-id="4393"></path><path d="M879.8 405.7L512 180.9 144.2 405.7c-10.3 6.3-13.5 19.7-7.2 29.9 6.2 10.2 19.6 13.5 29.9 7.2L512 231.9l345.1 210.9c3.5 2.2 7.4 3.2 11.3 3.2 7.3 0 14.5-3.7 18.6-10.4 6.2-10.3 3-23.6-7.2-29.9z" fill="" p-id="4394"></path></svg>