<?xml version="1.0" standalone="no"?><!DOCTYPE svg PUBLIC "-//W3C//DTD SVG 1.1//EN" "http://www.w3.org/Graphics/SVG/1.1/DTD/svg11.dtd"><svg t="1539168428479" class="icon" style="" viewBox="0 0 1024 1024" version="1.1" xmlns="http://www.w3.org/2000/svg" p-id="2880" xmlns:xlink="http://www.w3.org/1999/xlink" width="200" height="200"><defs><style type="text/css"></style></defs><path d="M704.2 663.6c-1.1 22.3-19.3 40.5-41.6 41.6-26.1 1.3-47.5-20.1-46.2-46.2 1.1-22.3 19.3-40.5 41.6-41.6 26.1-1.3 47.6 20.1 46.2 46.2z" fill="#FFFFFF" p-id="2881"></path><path d="M672 352c0-88.4-71.6-160-160-160s-160 71.6-160 160 71.6 160 160 160 160-71.6 160-160zM512 480c-34.2 0-66.3-13.3-90.5-37.5-24.2-24.2-37.5-56.3-37.5-90.5s13.3-66.3 37.5-90.5c24.2-24.2 56.3-37.5 90.5-37.5s66.3 13.3 90.5 37.5c24.2 24.2 37.5 56.3 37.5 90.5s-13.3 66.3-37.5 90.5C578.3 466.7 546.2 480 512 480z" fill="" p-id="2882"></path><path d="M246.6 719.9c14.5-34.3 35.3-65.1 61.7-91.6 26.5-26.5 57.3-47.2 91.6-61.7 35.5-15 73.2-22.6 112.1-22.6v-32c-176.7 0-320 143.3-320 320h320v-32H225.7c3.1-27.6 10.1-54.4 20.9-80.1z" fill="" p-id="2883"></path><path d="M801.2 620.9c-5.4-2.2-10.7-3.8-15.1-4.9-1.4-4-3.1-7.9-4.9-11.7 15.7-24.8 17.1-46.3 3.5-60.1l-6.8-7.1-0.3-0.3c-16-16-41.8-6.2-59.8 4-4.1-2-8.3-3.7-12.6-5.2-6.9-28.4-21.5-44.5-40.9-44.5h-7.6c-10.4 0-28.8 6-40.7 44.5-4.2 1.5-8.4 3.2-12.4 5.2-24.4-15.4-46.4-16.9-60.2-3.8l-7.4 6.2-0.5 0.5c-12.4 12.4-8.8 30.8-3.7 44 2.5 6.3 5.5 12.2 8.2 16.9-1.8 3.9-3.4 7.8-4.9 11.7-5.4 1.3-11.8 3.2-17.9 6-10.2 4.6-27.4 15.2-27.4 35v7.6c0 22.7 25.4 34.9 45.3 40.9 1.5 4.2 3.2 8.3 5.2 12.4-2.6 4.8-5.7 10.8-8.1 17.3-4.9 13.2-8.2 31.4 4 43.7l0.5 0.5 7 5.8c6.8 6.5 21.6 14.8 47 3.6 5.2-2.3 9.8-4.9 13.5-7.2 3.4 1.4 7.4 3.1 11.4 4.5 6 19.9 18.2 45.4 40.9 45.4h7.6c21.4 0 32.3-19.2 36.8-30.6 2.1-5.3 3.6-10.5 4.6-14.8 3.4-1.4 7.4-3.1 11.3-4.8 4.8 2.8 10.7 5.8 17 8.2 22.9 8.8 35.7 2.6 42.4-4.1l7.7-7.7c6.5-6.5 15.7-21.3 4.1-47.1-2.2-4.9-4.8-9.4-7.1-13.1 1.9-4 3.6-8.2 5.1-12.4 38.3-11.9 44.3-30.3 44.3-40.6v-7.6c0.3-20.9-18.1-31.7-29.1-36.3z m-2.6 42.9c-2.4 3.1-13.2 9.1-28.8 13l-9 2.3-2.5 8.9c-2.2 7.9-5.4 15.6-9.6 23l-5.4 9.5 6.8 8.5c0.1 0.1 5.5 6.9 9.1 15 3.2 7.2 2.9 10.9 2.4 11.3l-6.8 6.8c-4 0.1-15.1-3.7-27.9-12.2l-8.2-5.4-8.5 4.8c-6.3 3.5-19.4 8.6-23.9 10.3l-9 3.3-1.3 9.6c0 0.1-1.2 8.5-4.5 16.7-3.2 8-6.4 10.5-7.1 10.5h-6.5c-3.2-2.5-9.4-13.8-13.2-29.6l-2.2-9.1-9-2.5c-7.1-2-19.7-7.5-24-9.4l-8.9-4-7.7 6c-0.1 0.1-7.1 5.5-15.2 9-7.5 3.2-11.2 2.8-11.7 2.3l-0.5-0.5-5.5-4.6c-0.2-4.4 3.7-16.2 12.4-29.8l5.2-8.1-4.7-8.4c-4.1-7.2-7.2-14.7-9.4-22.4l-2.5-9-9.1-2.2c-15.9-3.8-27.2-10-29.7-13.3v-6.5c0.9-2.6 11.2-8.7 28.2-11.4l10.2-1.6 2.7-9.9c2.1-7.8 5.3-15.4 9.3-22.6l4.8-8.5-5.3-8.1c-8.7-13.2-12.8-25.1-12.7-29.5l5.4-4.5 1-0.9c2.5-1.1 13.9 2 27.5 12.1l8.4 6.2 9.1-5.2c7.3-4.2 15-7.4 23-9.7l8.9-2.5 2.3-9c4-15.8 10-26.6 13.1-29.1h6.5c2.6 0.9 8.5 10.9 11.3 27.6l1.7 10.1 9.9 2.7c8 2.2 15.9 5.4 23.3 9.6l8.5 4.8 8.2-5.3c13.1-8.6 24.6-12.5 28.7-12.3l5.8 6.1 0.3 0.3c0.9 2.5-1.8 13.1-12.1 27l-6.2 8.4 5.2 9.1c4.2 7.3 7.4 15.1 9.6 23l2.8 10.1 10.4 1.5c0.4 0.1 9.2 1.3 17.4 4.8 7.4 3.1 9.7 6.1 9.7 6.8v6.1z" fill="" p-id="2884"></path><path d="M657.2 601.4c-14.8 0.7-28.7 7-39.3 17.5-10.6 10.6-16.8 24.5-17.5 39.3-0.9 16.9 5.5 33.5 17.5 45.5 11.3 11.3 26.6 17.6 42.5 17.6 1 0 2 0 3-0.1 14.8-0.7 28.7-7 39.3-17.5s16.8-24.5 17.5-39.3c0.9-16.9-5.5-33.5-17.5-45.5-11.9-11.9-28.5-18.3-45.5-17.5z m31.1 61.4c-0.7 14.1-12.3 25.7-26.5 26.5-8.1 0.4-15.6-2.5-21.3-8.2-5.7-5.7-8.6-13.2-8.2-21.3 0.7-14.1 12.3-25.7 26.5-26.5h1.5c7.5 0 14.5 2.9 19.8 8.2 5.7 5.7 8.6 13.3 8.2 21.3z" fill="" p-id="2885"></path></svg>