<?xml version="1.0" standalone="no"?><!DOCTYPE svg PUBLIC "-//W3C//DTD SVG 1.1//EN" "http://www.w3.org/Graphics/SVG/1.1/DTD/svg11.dtd"><svg t="1539168316986" class="icon" style="" viewBox="0 0 1024 1024" version="1.1" xmlns="http://www.w3.org/2000/svg" p-id="2534" xmlns:xlink="http://www.w3.org/1999/xlink" width="200" height="200"><defs><style type="text/css"></style></defs><path d="M513.1 1022c-68.7 0-135.3-13.5-198-40-60.6-25.6-115-62.3-161.7-109s-83.3-101-109-161.6c-26.5-62.7-40-129.3-40-198s13.5-135.3 40-198c25.6-60.6 62.3-115 109-161.7s101.1-83.4 161.7-109c62.7-26.5 129.3-40 198-40s135.3 13.5 198 40c60.6 25.6 115 62.3 161.7 109s83.4 101.1 109 161.7c26.5 62.7 40 129.3 40 198s-13.5 135.3-40 198c-25.6 60.6-62.3 115-109 161.7S771.6 956.4 711 982c-62.7 26.6-129.3 40-197.9 40z m0-969.2c-254 0-460.6 206.6-460.6 460.6S259.1 974 513.1 974s460.6-206.6 460.6-460.6S767 52.8 513.1 52.8z" p-id="2535"></path><path d="M513.5 912.9l-0.1-48c14.7 0 29.6-1 44.1-2.8l6 47.6c-16.4 2.1-33.3 3.2-50 3.2z m-50-3c-16.6-2.1-33.2-5.2-49.3-9.3l11.8-46.5c14.2 3.6 28.8 6.4 43.4 8.2l-5.9 47.6z m149.3-9.5l-12-46.5c14.2-3.7 28.3-8.2 41.9-13.7l17.7 44.6c-15.4 6.2-31.4 11.4-47.6 15.6z m-246.4-15.3c-15.5-6.1-30.8-13.3-45.4-21.3l23.1-42.1c12.9 7.1 26.3 13.4 39.9 18.8l-17.6 44.6z m339.5-21.7l-23.2-42c12.8-7.1 25.3-15.1 37.2-23.7l28.3 38.8c-13.5 9.8-27.7 18.9-42.3 26.9z m-427.3-26.5c-13.5-9.8-26.5-20.5-38.7-31.9l32.8-35c10.7 10 22.2 19.5 34 28.1l-28.1 38.8z m508.2-32.4l-32.9-35c10.7-10.1 20.9-20.9 30.2-32.2l37 30.6c-10.7 12.8-22.2 25.1-34.3 36.6z m-581.2-36C194.9 755.7 185 742 176 728l40.5-25.8c7.9 12.4 16.6 24.3 26 35.6l-36.9 30.7z m644.9-41.2L810 701.6c7.9-12.4 15-25.4 21.3-38.7l43.4 20.4c-7.1 15.1-15.2 29.9-24.2 44z m-698.7-43.2c-7.1-15.1-13.4-30.8-18.6-46.6l45.6-14.9c4.5 13.9 10 27.7 16.3 41l-43.3 20.5z m741.4-47.4l-45.7-14.8c4.5-13.9 8.2-28.3 10.9-42.7l47.2 8.9c-3.1 16.3-7.3 32.7-12.4 48.6z m-772.5-47.8c-3.1-16.3-5.2-33.1-6.3-49.8l47.9-3c0.9 14.7 2.8 29.4 5.5 43.8l-47.1 9z m791.1-50.6l-47.9-2.9c0.4-7.2 0.7-14.6 0.7-21.9 0-7.4-0.2-14.9-0.7-22.3l47.9-3c0.5 8.4 0.8 16.9 0.8 25.3 0 8.2-0.3 16.5-0.8 24.8z m-749.6-46.4l-47.9-2.9c1-16.7 3.1-33.4 6.1-49.8l47.2 8.9c-2.7 14.4-4.5 29.1-5.4 43.8z m696.2-44.5c-2.7-14.4-6.4-28.8-11-42.7l45.6-14.8c5.2 15.9 9.3 32.2 12.5 48.6l-47.1 8.9z m-679.9-42l-45.7-14.7c5.1-15.9 11.3-31.6 18.4-46.7l43.5 20.4c-6.3 13.2-11.7 27-16.2 41z m652.7-41.8c-6.2-13.2-13.4-26.2-21.3-38.6l40.5-25.8c9 14.1 17.1 28.8 24.2 43.9l-43.4 20.5z m-615.3-38l-40.6-25.7c8.9-14.1 18.8-27.7 29.4-40.6l37 30.5c-9.2 11.4-18 23.4-25.8 35.8z m568-36.3c-9.4-11.3-19.5-22.1-30.2-32.2l32.9-35c12.2 11.4 23.7 23.7 34.3 36.5l-37 30.7zM272 257.6l-32.9-34.9c12.1-11.4 25.1-22.2 38.6-32l28.3 38.8c-11.9 8.6-23.3 18.1-34 28.1zM719.6 229c-11.9-8.6-24.4-16.6-37.3-23.7l23.2-42c14.6 8 28.8 17.1 42.3 26.9L719.6 229z m-376.5-23.3l-23.2-42c14.6-8.1 29.8-15.3 45.3-21.5l17.8 44.6c-13.7 5.4-27.1 11.8-39.9 18.9z m299.4-19.2c-13.6-5.4-27.8-10-42-13.6l11.9-46.5c16.2 4.1 32.2 9.4 47.8 15.5l-17.7 44.6z m-217.6-13.4l-12-46.5c16.1-4.2 32.7-7.3 49.3-9.5l6.1 47.6c-14.7 1.9-29.2 4.7-43.4 8.4z m132.2-8.4c-14.5-1.8-29.3-2.7-44.1-2.7h-0.8l-0.2-48h0.9c16.7 0 33.5 1 50 3.1l-5.8 47.6z" p-id="2536"></path><path d="M513.1 1022c-68.7 0-135.3-13.5-198-40-60.6-25.6-115-62.3-161.7-109s-83.3-101-109-161.6c-26.5-62.7-40-129.3-40-198s13.5-135.3 40-198c25.6-60.6 62.3-115 109-161.7s101.1-83.4 161.7-109c62.7-26.5 129.3-40 198-40s135.3 13.5 198 40c60.6 25.6 115 62.3 161.7 109s83.4 101.1 109 161.7c26.5 62.7 40 129.3 40 198s-13.5 135.3-40 198c-25.6 60.6-62.3 115-109 161.7S771.6 956.4 711 982c-62.7 26.6-129.3 40-197.9 40z m0-969.2c-254 0-460.6 206.6-460.6 460.6S259.1 974 513.1 974s460.6-206.6 460.6-460.6S767 52.8 513.1 52.8z" p-id="2537"></path><path d="M513.5 912.9l-0.1-48c14.7 0 29.6-1 44.1-2.8l6 47.6c-16.4 2.1-33.3 3.2-50 3.2z m-50-3c-16.6-2.1-33.2-5.2-49.3-9.3l11.8-46.5c14.2 3.6 28.8 6.4 43.4 8.2l-5.9 47.6z m149.3-9.5l-12-46.5c14.2-3.7 28.3-8.2 41.9-13.7l17.7 44.6c-15.4 6.2-31.4 11.4-47.6 15.6z m-246.4-15.3c-15.5-6.1-30.8-13.3-45.4-21.3l23.1-42.1c12.9 7.1 26.3 13.4 39.9 18.8l-17.6 44.6z m339.5-21.7l-23.2-42c12.8-7.1 25.3-15.1 37.2-23.7l28.3 38.8c-13.5 9.8-27.7 18.9-42.3 26.9z m-427.3-26.5c-13.5-9.8-26.5-20.5-38.7-31.9l32.8-35c10.7 10 22.2 19.5 34 28.1l-28.1 38.8z m508.2-32.4l-32.9-35c10.7-10.1 20.9-20.9 30.2-32.2l37 30.6c-10.7 12.8-22.2 25.1-34.3 36.6z m-581.2-36C194.9 755.7 185 742 176 728l40.5-25.8c7.9 12.4 16.6 24.3 26 35.6l-36.9 30.7z m644.9-41.2L810 701.6c7.9-12.4 15-25.4 21.3-38.7l43.4 20.4c-7.1 15.1-15.2 29.9-24.2 44z m-698.7-43.2c-7.1-15.1-13.4-30.8-18.6-46.6l45.6-14.9c4.5 13.9 10 27.7 16.3 41l-43.3 20.5z m741.4-47.4l-45.7-14.8c4.5-13.9 8.2-28.3 10.9-42.7l47.2 8.9c-3.1 16.3-7.3 32.7-12.4 48.6z m-772.5-47.8c-3.1-16.3-5.2-33.1-6.3-49.8l47.9-3c0.9 14.7 2.8 29.4 5.5 43.8l-47.1 9z m791.1-50.6l-47.9-2.9c0.4-7.2 0.7-14.6 0.7-21.9 0-7.4-0.2-14.9-0.7-22.3l47.9-3c0.5 8.4 0.8 16.9 0.8 25.3 0 8.2-0.3 16.5-0.8 24.8z m-749.6-46.4l-47.9-2.9c1-16.7 3.1-33.4 6.1-49.8l47.2 8.9c-2.7 14.4-4.5 29.1-5.4 43.8z m696.2-44.5c-2.7-14.4-6.4-28.8-11-42.7l45.6-14.8c5.2 15.9 9.3 32.2 12.5 48.6l-47.1 8.9z m-679.9-42l-45.7-14.7c5.1-15.9 11.3-31.6 18.4-46.7l43.5 20.4c-6.3 13.2-11.7 27-16.2 41z m652.7-41.8c-6.2-13.2-13.4-26.2-21.3-38.6l40.5-25.8c9 14.1 17.1 28.8 24.2 43.9l-43.4 20.5z m-615.3-38l-40.6-25.7c8.9-14.1 18.8-27.7 29.4-40.6l37 30.5c-9.2 11.4-18 23.4-25.8 35.8z m568-36.3c-9.4-11.3-19.5-22.1-30.2-32.2l32.9-35c12.2 11.4 23.7 23.7 34.3 36.5l-37 30.7zM272 257.6l-32.9-34.9c12.1-11.4 25.1-22.2 38.6-32l28.3 38.8c-11.9 8.6-23.3 18.1-34 28.1zM719.6 229c-11.9-8.6-24.4-16.6-37.3-23.7l23.2-42c14.6 8 28.8 17.1 42.3 26.9L719.6 229z m-376.5-23.3l-23.2-42c14.6-8.1 29.8-15.3 45.3-21.5l17.8 44.6c-13.7 5.4-27.1 11.8-39.9 18.9z m299.4-19.2c-13.6-5.4-27.8-10-42-13.6l11.9-46.5c16.2 4.1 32.2 9.4 47.8 15.5l-17.7 44.6z m-217.6-13.4l-12-46.5c16.1-4.2 32.7-7.3 49.3-9.5l6.1 47.6c-14.7 1.9-29.2 4.7-43.4 8.4z m132.2-8.4c-14.5-1.8-29.3-2.7-44.1-2.7h-0.8l-0.2-48h0.9c16.7 0 33.5 1 50 3.1l-5.8 47.6z" p-id="2538"></path><path d="M513.1 1022c-68.7 0-135.3-13.5-198-40-60.6-25.6-115-62.3-161.7-109s-83.3-101-109-161.6c-26.5-62.7-40-129.3-40-198s13.5-135.3 40-198c25.6-60.6 62.3-115 109-161.7s101.1-83.4 161.7-109c62.7-26.5 129.3-40 198-40s135.3 13.5 198 40c60.6 25.6 115 62.3 161.7 109s83.4 101.1 109 161.7c26.5 62.7 40 129.3 40 198s-13.5 135.3-40 198c-25.6 60.6-62.3 115-109 161.7S771.6 956.4 711 982c-62.7 26.6-129.3 40-197.9 40z m0-969.2c-254 0-460.6 206.6-460.6 460.6S259.1 974 513.1 974s460.6-206.6 460.6-460.6S767 52.8 513.1 52.8z" p-id="2539"></path><path d="M513.5 912.9l-0.1-48c14.7 0 29.6-1 44.1-2.8l6 47.6c-16.4 2.1-33.3 3.2-50 3.2z m-50-3c-16.6-2.1-33.2-5.2-49.3-9.3l11.8-46.5c14.2 3.6 28.8 6.4 43.4 8.2l-5.9 47.6z m149.3-9.5l-12-46.5c14.2-3.7 28.3-8.2 41.9-13.7l17.7 44.6c-15.4 6.2-31.4 11.4-47.6 15.6z m-246.4-15.3c-15.5-6.1-30.8-13.3-45.4-21.3l23.1-42.1c12.9 7.1 26.3 13.4 39.9 18.8l-17.6 44.6z m339.5-21.7l-23.2-42c12.8-7.1 25.3-15.1 37.2-23.7l28.3 38.8c-13.5 9.8-27.7 18.9-42.3 26.9z m-427.3-26.5c-13.5-9.8-26.5-20.5-38.7-31.9l32.8-35c10.7 10 22.2 19.5 34 28.1l-28.1 38.8z m508.2-32.4l-32.9-35c10.7-10.1 20.9-20.9 30.2-32.2l37 30.6c-10.7 12.8-22.2 25.1-34.3 36.6z m-581.2-36C194.9 755.7 185 742 176 728l40.5-25.8c7.9 12.4 16.6 24.3 26 35.6l-36.9 30.7z m644.9-41.2L810 701.6c7.9-12.4 15-25.4 21.3-38.7l43.4 20.4c-7.1 15.1-15.2 29.9-24.2 44z m-698.7-43.2c-7.1-15.1-13.4-30.8-18.6-46.6l45.6-14.9c4.5 13.9 10 27.7 16.3 41l-43.3 20.5z m741.4-47.4l-45.7-14.8c4.5-13.9 8.2-28.3 10.9-42.7l47.2 8.9c-3.1 16.3-7.3 32.7-12.4 48.6z m-772.5-47.8c-3.1-16.3-5.2-33.1-6.3-49.8l47.9-3c0.9 14.7 2.8 29.4 5.5 43.8l-47.1 9z m791.1-50.6l-47.9-2.9c0.4-7.2 0.7-14.6 0.7-21.9 0-7.4-0.2-14.9-0.7-22.3l47.9-3c0.5 8.4 0.8 16.9 0.8 25.3 0 8.2-0.3 16.5-0.8 24.8z m-749.6-46.4l-47.9-2.9c1-16.7 3.1-33.4 6.1-49.8l47.2 8.9c-2.7 14.4-4.5 29.1-5.4 43.8z m696.2-44.5c-2.7-14.4-6.4-28.8-11-42.7l45.6-14.8c5.2 15.9 9.3 32.2 12.5 48.6l-47.1 8.9z m-679.9-42l-45.7-14.7c5.1-15.9 11.3-31.6 18.4-46.7l43.5 20.4c-6.3 13.2-11.7 27-16.2 41z m652.7-41.8c-6.2-13.2-13.4-26.2-21.3-38.6l40.5-25.8c9 14.1 17.1 28.8 24.2 43.9l-43.4 20.5z m-615.3-38l-40.6-25.7c8.9-14.1 18.8-27.7 29.4-40.6l37 30.5c-9.2 11.4-18 23.4-25.8 35.8z m568-36.3c-9.4-11.3-19.5-22.1-30.2-32.2l32.9-35c12.2 11.4 23.7 23.7 34.3 36.5l-37 30.7zM272 257.6l-32.9-34.9c12.1-11.4 25.1-22.2 38.6-32l28.3 38.8c-11.9 8.6-23.3 18.1-34 28.1zM719.6 229c-11.9-8.6-24.4-16.6-37.3-23.7l23.2-42c14.6 8 28.8 17.1 42.3 26.9L719.6 229z m-376.5-23.3l-23.2-42c14.6-8.1 29.8-15.3 45.3-21.5l17.8 44.6c-13.7 5.4-27.1 11.8-39.9 18.9z m299.4-19.2c-13.6-5.4-27.8-10-42-13.6l11.9-46.5c16.2 4.1 32.2 9.4 47.8 15.5l-17.7 44.6z m-217.6-13.4l-12-46.5c16.1-4.2 32.7-7.3 49.3-9.5l6.1 47.6c-14.7 1.9-29.2 4.7-43.4 8.4z m132.2-8.4c-14.5-1.8-29.3-2.7-44.1-2.7h-0.8l-0.2-48h0.9c16.7 0 33.5 1 50 3.1l-5.8 47.6z" p-id="2540"></path><path d="M522 718.3l1.3-4.5c5.8-25.1-8.4-50.5-32.2-57.9l-4.4-1c-6.2-1.4-12.3-8.1-13.4-14.6 0 0-1-5.8-1-20.8 0-14.9 1-20.7 1-20.7 1.1-6.5 7.2-13.1 13.4-14.6l4.5-1.1c23.8-7.3 37.9-32.7 32.1-57.8l-1.4-4.6c-1.9-6.4 0.6-15 5.5-19.3 0 0 4.3-3.9 16.7-11.4 12.4-7.4 17.8-9.4 17.8-9.4 5.6-2.1 13.2-0.4 17.7 3.6 2-3.3 4.5-6.3 7.3-8.9 15.7-9 24.8-26.7 23.2-45.2 0-24.1-19-24.1-19-24.1l-6.8-38.9c-10.7-46.6-49.9-80-96-81.8h-13.5c-45.8 2.1-84.6 35.5-95.2 81.8-6.8 39.7-6.8 38.9-6.8 38.9s-19 0-19 24.1c-1.5 18.5 7.6 36.2 23.2 45.2 16.2 12.7 11.5 40.2 36.7 64.4 13.5 13 23.2 22.6 23.2 41s-9.5 22.6-19 28.3c-36.1 12.1-71.1 27.2-104.7 45.2-30 21.3-28.7 32.4-28.7 51.9 0 31.2 38.2 35.3 38.2 35.3H532c-3.6-2.5-5.1-3.8-5.1-3.8-4.3-4.2-6.7-12.9-4.9-19.3z m218.2-116.7c-1-5.7-6.2-11.4-11.7-12.7l-4.1-1c-20.6-6.4-32.8-28.4-27.7-50.1l1.3-4c1.6-5.5-0.5-13.1-4.8-16.9 0 0-3.8-3.4-14.6-9.8-10.8-6.5-15.4-8.2-15.4-8.2-5.3-2-12.6-0.1-16.4 4.1l-2.8 3.1c-15.7 15.3-40.1 15.3-55.7-0.1l-2.7-3.1c-2.7-3-7.3-4.8-11.6-4.9-1.7 0-3.3 0.2-4.8 0.8 0 0-4.7 1.8-15.5 8.2-10.8 6.5-14.6 9.9-14.6 9.9-4.3 3.7-6.4 11.2-4.7 16.8l1.2 4c5 21.8-7.2 43.8-27.9 50.1l-3.9 0.9c-5.4 1.3-10.7 7-11.7 12.7 0 0-0.9 5.1-0.9 18 0 13 0.9 18.1 0.9 18.1 1 5.6 6.2 11.4 11.7 12.6l3.8 0.9c20.7 6.4 33 28.4 27.9 50.3l-1.1 3.9c-1.6 5.5 0.5 13.1 4.7 16.9 0 0 3.8 3.4 14.6 9.8 10.8 6.5 15.4 8.2 15.4 8.2 0.4 0.2 0.9 0.3 1.3 0.4 5.1 1.2 11.6-0.7 15.1-4.6l2.7-3c15.7-15.4 40.2-15.4 55.9 0l2.7 3c3.8 4.3 11.2 6.1 16.4 4.1 0 0 4.7-1.7 15.5-8.2 10.8-6.4 14.6-9.8 14.6-9.8 4.3-3.8 6.4-11.3 4.8-16.9l-1.2-4.1c-5-21.8 7.3-43.8 27.9-50.1l3.8-0.9c5.4-1.3 10.7-6.9 11.7-12.6 0 0 0.9-5.1 0.9-18.1 0-12.7-1-17.7-1-17.7z m-124 77.6c-31.7 0-57.4-26.7-57.3-59.6 0-32.9 25.7-59.6 57.4-59.5 31.7 0 57.4 26.7 57.3 59.6 0 32.8-25.7 59.5-57.4 59.5z" p-id="2541"></path></svg>